# xmcd
#
# Track frame offsets: 
#        150
#        15277
#        32275
#        47430
#        60597
#        77632
#        95030
#        114377
#        130005
#        144100
#        155530
#
# Disc length: 2324 seconds
#
# Revision: 0
# Processed by: cddbd v1.4PL0 Copyright (c) Steve Scherf et al.
# Submitted via: ExactAudioCopy v0.90b4
#
DISCID=7509120b
DTITLE=Kane's River - Kane's River
DYEAR=2000
DGENRE=Bluegrass
TTITLE0=This Whole World
TTITLE1=Billy Austin
TTITLE2=All That's Left Me
TTITLE3=Talk To God
TTITLE4=Sea Of South Dakota
TTITLE5=Calm Before The Storm
TTITLE6=Take Me Back Home
TTITLE7=Pray For Rain
TTITLE8=Cole Younger
TTITLE9=Scowlin' John
TTITLE10=In Your Hands
EXTD=
EXTT0=
EXTT1=
EXTT2=
EXTT3=
EXTT4=
EXTT5=
EXTT6=
EXTT7=
EXTT8=
EXTT9=
EXTT10=
PLAYORDER=
